<svg version="1.1" id="Calque_1" xmlns="http://www.w3.org/2000/svg" x="0" y="0" width="245.62" height="237.2" viewBox="0 0 245.62 237.2" xml:space="preserve"><path d="M122.817 0C54.993 0 0 22.395 0 50.004 0 77.612 54.993 99.99 122.817 99.99c67.836 0 122.804-22.378 122.804-49.986C245.62 22.395 190.653 0 122.817 0zm0 77.37c-48.003 0-86.909-14.13-86.909-31.614 0-17.453 38.905-31.622 86.909-31.622 47.986 0 86.909 14.169 86.909 31.622-.001 17.484-38.923 31.614-86.909 31.614zM9.115 192.947h3.457v21.608h.112c1.382-2.938 4.787-5.357 9.106-5.357 8.298 0 10.144 5.65 10.144 11.465v15.845h-3.465v-15.673c0-4.32-1.201-8.528-6.679-8.528-5.132 0-9.218 3.577-9.218 10.895v13.305H9.115v-43.56zM75.02 231.498c-2.709 4.036-6.799 5.702-11.525 5.702-8.122 0-13.478-5.819-13.478-14.057 0-7.957 5.525-13.944 13.301-13.944 8.187 0 12.506 6.281 12.506 12.441v2.428H53.473c0 2.877 2.013 10.022 10.082 10.022 3.507 0 7.201-1.84 8.926-4.721l2.539 2.129zm-2.652-10.541c0-4.726-4.095-8.649-9.218-8.649-7.551 0-9.677 7.262-9.677 8.649h18.895zM114.595 225.329c0 5.193.117 8.13.519 11.18h-3.228c-.233-1.322-.345-2.821-.345-4.319h-.113c-1.965 3.4-4.847 5.011-9.34 5.011-4.544 0-9.391-2.246-9.391-7.888 0-8.121 9.513-8.933 14.753-8.933h4.035v-1.616c0-4.609-3.226-6.454-7.495-6.454-3.11 0-5.763.985-8.122 2.999l-2.012-2.359c2.531-2.428 6.683-3.749 10.134-3.749 6.458 0 10.605 2.877 10.605 9.624v6.504zm-6.915-2.186c-5.763 0-11.518 1.439-11.518 5.996 0 3.283 3.163 4.95 6.049 4.95 7.369 0 9.274-4.721 9.274-9.162v-1.784h-3.805zM130.429 209.89h3.918l8.873 22.878 8.645-22.878h3.516l-10.488 26.619h-3.569l-10.895-26.619zM194.727 231.498c-2.709 4.036-6.795 5.702-11.525 5.702-8.122 0-13.479-5.819-13.479-14.057 0-7.957 5.531-13.944 13.31-13.944 8.177 0 12.506 6.281 12.506 12.441v2.428h-22.36c0 2.877 2.013 10.022 10.082 10.022 3.517 0 7.202-1.84 8.934-4.721l2.532 2.129zm-2.653-10.541c0-4.726-4.095-8.649-9.218-8.649-7.551 0-9.677 7.262-9.677 8.649h18.895zM213.613 217.38c0-1.961-.285-6.108-.285-7.49h3.455c.06 1.961.117 4.147.233 4.666h.165c1.386-2.938 4.795-5.357 9.115-5.357 8.289 0 10.134 5.65 10.134 11.465v15.845h-3.456v-15.673c0-4.32-1.209-8.528-6.678-8.528-5.132 0-9.228 3.577-9.228 10.895v13.305h-3.456V217.38z"/></svg>